nColumns=19
nRows=132
DataType=double
version=3
OpenSimVersion=4.1
endheader
time	ground_force_calcn_r_vx	ground_force_calcn_r_vy	ground_force_calcn_r_vz	ground_force_calcn_r_px	ground_force_calcn_r_py	ground_force_calcn_r_pz	ground_force_calcn_r_mx	ground_force_calcn_r_my	ground_force_calcn_r_mz	ground_force_calcn_l_vx	ground_force_calcn_l_vy	ground_force_calcn_l_vz	ground_force_calcn_l_px	ground_force_calcn_l_py	ground_force_calcn_l_pz	ground_force_calcn_l_mx	ground_force_calcn_l_my	ground_force_calcn_l_mz
2.96	0	0	0	0	0	0	0	0	0	20.4843	182.947	-8.79585	0.957409	0	-0.330581	-0.131102	-1.17088	0.0562946
2.97	0	0	0	0	0	0	0	0	0	34.9324	354.343	-19.6038	1.02077	0	-0.332749	-0.149634	-1.51784	0.0839735
2.98	0	0	0	0	0	0	0	0	0	26.2455	566.764	-22.4646	1.04112	0	-0.331347	-0.0694916	-1.50065	0.0594808
2.99	0	0	0	0	0	0	0	0	0	-10.862	712.225	-15.5466	1.04901	0	-0.330731	0.0153943	-1.00941	0.0220336
3	0	0	0	0	0	0	0	0	0	-49.9257	763.718	-24.6249	1.05069	0	-0.332053	0.0156773	-0.239818	0.00773255
3.01	0	0	0	0	0	0	0	0	0	-78.5264	783.576	-34.3636	1.04676	0	-0.335305	-0.0504226	0.503142	-0.0220652
3.02	0	0	0	0	0	0	0	0	0	-100.99	833.032	-12.8212	1.03732	0	-0.339293	-0.117676	0.970666	-0.0149395
3.03	0	0	0	0	0	0	0	0	0	-115.617	917.323	18.8984	1.02427	0	-0.342471	-0.125385	0.994829	0.0204951
3.04	0	0	0	0	0	0	0	0	0	-116.475	1006.41	27.5277	1.01001	0	-0.344346	-0.0667675	0.576908	0.0157798
3.05	0	0	0	0	0	0	0	0	0	-105.335	1080.09	22.893	0.99555	0	-0.34539	0.0057416	-0.0588736	-0.00124786
3.06	0	0	0	0	0	0	0	0	0	-89.9204	1134.08	24.2705	0.980937	0	-0.346193	0.0473109	-0.596687	-0.0127697
3.07	0	0	0	0	0	0	0	0	0	-76.1862	1167.62	29.5851	0.966178	0	-0.347138	0.0564896	-0.865749	-0.0219364
3.08	0	0	0	0	0	0	0	0	0	-66.2685	1181.12	36.9516	0.951372	0	-0.348355	0.0510425	-0.909741	-0.0284615
3.09	0	0	0	0	0	0	0	0	0	-56.6526	1179.85	42.923	0.936548	0	-0.349767	0.0400246	-0.833552	-0.0303247
3.1	0	0	0	0	0	0	0	0	0	-44.7742	1168.15	46.7769	0.92171	0	-0.35118	0.0251741	-0.656786	-0.0263001
3.11	0	0	0	0	0	0	0	0	0	-29.8624	1147.8	50.6691	0.906981	0	-0.352405	0.00892608	-0.343085	-0.0151453
3.12	0	0	0	0	0	0	0	0	0	-13.2539	1118.34	52.3686	0.892536	0	-0.353338	-0.000962364	0.0812025	0.00380248
3.13	0	0	0	0	0	0	0	0	0	1.8991	1078.61	52.3451	0.878331	0	-0.353929	0.000875235	0.497098	0.0241242
3.14	0	0	0	0	0	0	0	0	0	16.8878	1031.84	51.5848	0.863938	0	-0.35415	0.0128887	0.787498	0.0393693
3.15	0	0	0	0	0	0	0	0	0	33.8861	981.402	49.3279	0.848858	0	-0.354001	0.0322938	0.935286	0.04701
3.16	0	0	0	0	0	0	0	0	0	50.9313	925.916	42.1487	0.832879	0	-0.353507	0.0555282	1.00949	0.0459529
3.17	0	0	0	0	0	0	0	0	0	66.667	863.775	28.4131	0.816085	0	-0.352628	0.0818418	1.06039	0.0348805
3.18	0	0	0	0	0	0	0	0	0	79.5781	796.258	15.2777	0.798723	0	-0.351269	0.104806	1.04869	0.0201211
3.19	0	0	0	0	0	0	0	0	0	87.9385	724.629	8.55537	0.781076	0	-0.349482	0.107294	0.884118	0.0104384
3.2	0	0	0	0	0	0	0	0	0	92.468	648.449	2.00779	0.763304	0	-0.347612	0.0740887	0.519561	0.00160872
3.21	0	0	0	0	0	0	0	0	0	93.9252	567.925	-8.76891	0.745433	0	-0.346147	0.00587827	0.0355434	-0.000548799
3.22	0	0	0	0	0	0	0	0	0	90.4487	484.94	-15.4919	0.727558	0	-0.345411	-0.0599458	-0.321399	0.0102674
3.23	0	0	0	0	0	0	0	0	0	81.1891	402.714	-13.2683	0.710258	0	-0.34533	-0.0527107	-0.261455	0.00861424
3.24	0	0	0	0	0	0	0	0	0	68.3162	323.006	-9.19477	0.695219	0	-0.34538	0.0425839	0.201341	-0.00573143
3.25	0	0	0	0	0	0	0	0	0	55.6372	248.939	-8.53179	0.68601	0	-0.344669	0.110528	0.494541	-0.0169492
3.26	0	0	0	0	0	0	0	0	0	44.874	187.052	-8.82621	0.684835	0	-0.342718	-0.00327058	-0.013633	0.000643287
3.27	0	0	0	0	0	0	0	0	0	36.559	140.154	-5.85576	0.680431	0	-0.340735	-0.217361	-0.833286	0.0348154
3.28	0	0	0	0	0	0	0	0	0	0	0	0	0	0	0	0	0	0
3.29	0	0	0	0	0	0	0	0	0	0	0	0	0	0	0	0	0	0
3.3	0	0	0	0	0	0	0	0	0	0	0	0	0	0	0	0	0	0
3.31	0	0	0	0	0	0	0	0	0	0	0	0	0	0	0	0	0	0
3.32	1.36342	141.601	-4.1975	0.958404	0	-0.27985	0.05383	5.59062	-0.165724	0	0	0	0	0	0	0	0	0
3.33	12.8723	301.291	-7.99048	1.04297	0	-0.273093	0.1233	2.886	-0.0765389	0	0	0	0	0	0	0	0	0
3.34	18.1008	548.757	2.32174	1.06249	0	-0.271963	0.106437	3.22683	0.0136524	0	0	0	0	0	0	0	0	0
3.35	-7.02724	761.312	35.4064	1.06937	0	-0.271913	-0.0461565	5.00047	0.232557	0	0	0	0	0	0	0	0	0
3.36	-51.356	838.77	51.8928	1.07269	0	-0.272294	-0.325151	5.31052	0.32855	0	0	0	0	0	0	0	0	0
3.37	-93.1866	833.324	22.4164	1.07329	0	-0.27232	-0.367884	3.28981	0.088496	0	0	0	0	0	0	0	0	0
3.38	-126.562	850.187	-16.8676	1.06838	0	-0.271298	-0.0694904	0.466807	-0.0092614	0	0	0	0	0	0	0	0	0
3.39	-145.198	929.288	-33.2212	1.05655	0	-0.269696	0.172291	-1.10268	0.0394199	0	0	0	0	0	0	0	0	0
3.4	-146.101	1040.15	-34.817	1.04055	0	-0.268464	0.101753	-0.724421	0.0242486	0	0	0	0	0	0	0	0	0
3.41	-133.786	1138.95	-32.8318	1.02402	0	-0.267771	-0.091425	0.778325	-0.0224362	0	0	0	0	0	0	0	0	0
3.42	-116.479	1206.41	-30.1368	1.00853	0	-0.267242	-0.200985	2.08165	-0.0520011	0	0	0	0	0	0	0	0	0
3.43	-99.924	1241.56	-31.8673	0.99418	0	-0.266516	-0.199409	2.47768	-0.0635948	0	0	0	0	0	0	0	0	0
3.44	-87.331	1248.31	-37.9207	0.980698	0	-0.26541	-0.149624	2.13873	-0.0649695	0	0	0	0	0	0	0	0	0
3.45	-79.2461	1232.9	-45.5044	0.967729	0	-0.26392	-0.104293	1.62258	-0.0598868	0	0	0	0	0	0	0	0	0
3.46	-71.2825	1204.63	-53.2842	0.954794	0	-0.262182	-0.0775448	1.31045	-0.0579653	0	0	0	0	0	0	0	0	0
3.47	-58.4582	1170.78	-58.1406	0.941506	0	-0.260408	-0.0612673	1.22704	-0.0609345	0	0	0	0	0	0	0	0	0
3.48	-40.538	1132.42	-60.1888	0.927858	0	-0.258811	-0.0431766	1.20613	-0.0641064	0	0	0	0	0	0	0	0	0
3.49	-22.1513	1086.59	-61.5943	0.914069	0	-0.257548	-0.0230247	1.12943	-0.0640228	0	0	0	0	0	0	0	0	0
3.5	-5.95675	1033.35	-61.286	0.900101	0	-0.256675	-0.00594911	1.03202	-0.0612074	0	0	0	0	0	0	0	0	0
3.51	9.30845	977.151	-56.1854	0.885483	0	-0.256209	0.00998275	1.04794	-0.0602555	0	0	0	0	0	0	0	0	0
3.52	24.9851	920.528	-46.901	0.869703	0	-0.256191	0.0352003	1.29688	-0.0660763	0	0	0	0	0	0	0	0	0
3.53	41.2601	861.413	-36.5101	0.852653	0	-0.256673	0.0867813	1.81179	-0.0767908	0	0	0	0	0	0	0	0	0
3.54	56.1992	797.988	-25.5904	0.834742	0	-0.257632	0.178092	2.52877	-0.0810941	0	0	0	0	0	0	0	0	0
3.55	67.2984	731.015	-13.3425	0.816604	0	-0.258946	0.304151	3.30377	-0.0603003	0	0	0	0	0	0	0	0	0
3.56	73.8217	660.853	-1.31402	0.798762	0	-0.2604	0.438808	3.92821	-0.00781073	0	0	0	0	0	0	0	0	0
3.57	76.5153	586.467	7.52567	0.781476	0	-0.261687	0.545225	4.17899	0.0536257	0	0	0	0	0	0	0	0	0
3.58	75.4428	507.83	13.2645	0.764785	0	-0.262459	0.587099	3.95195	0.103225	0	0	0	0	0	0	0	0	0
3.59	69.8985	426.799	17.9198	0.748764	0	-0.262491	0.558085	3.40766	0.143075	0	0	0	0	0	0	0	0	0
3.6	60.7095	345.697	19.7436	0.734085	0	-0.261899	0.515714	2.93663	0.167718	0	0	0	0	0	0	0	0	0
3.61	51.4292	269.037	15.0097	0.722789	0	-0.261236	0.544836	2.85015	0.159011	0	0	0	0	0	0	0	0	0
3.62	44.8853	203.149	6.59823	0.717629	0	-0.260922	0.66609	3.0147	0.0979165	0	0	0	0	0	0	0	0	0
3.63	40.4895	152.343	1.74001	0.715016	0	-0.259665	0.763914	2.87425	0.0328286	0	0	0	0	0	0	0	0	0
3.64	0	0	0	0	0	0	0	0	0	0	0	0	0	0	0	0	0	0
3.65	0	0	0	0	0	0	0	0	0	0	0	0	0	0	0	0	0	0
3.66	0	0	0	0	0	0	0	0	0	0	0	0	0	0	0	0	0	0
3.67	0	0	0	0	0	0	0	0	0	0	0	0	0	0	0	0	0	0
3.68	0	0	0	0	0	0	0	0	0	0	0	0	0	0	0	0	0	0
3.69	0	0	0	0	0	0	0	0	0	21.357	199.173	-10.7374	0.985801	0	-0.348475	0.102033	0.951549	-0.0512979
3.7	0	0	0	0	0	0	0	0	0	32.9897	385.762	-19.1781	1.03914	0	-0.352649	0.0395913	0.462957	-0.0230158
3.71	0	0	0	0	0	0	0	0	0	16.8783	597.976	-8.79323	1.05645	0	-0.352519	0.00206629	0.0732058	-0.00107649
3.72	0	0	0	0	0	0	0	0	0	-19.6666	729.207	8.34345	1.06238	0	-0.352719	-0.00234433	0.0869244	0.000994573
3.73	0	0	0	0	0	0	0	0	0	-50.23	773.894	-4.53126	1.06212	0	-0.354414	-0.0229704	0.353905	-0.00207216
3.74	0	0	0	0	0	0	0	0	0	-76.0002	800.863	-17.1327	1.0564	0	-0.3572	-0.0646957	0.68174	-0.0145843
3.75	0	0	0	0	0	0	0	0	0	-100.081	862.771	10.3909	1.04572	0	-0.359628	-0.111277	0.959288	0.0115533
3.76	0	0	0	0	0	0	0	0	0	-112.377	955.155	44.4407	1.03192	0	-0.360696	-0.118566	1.00776	0.0468882
3.77	0	0	0	0	0	0	0	0	0	-106.653	1047.95	48.0566	1.01707	0	-0.36074	-0.0670356	0.65868	0.0302054
3.78	0	0	0	0	0	0	0	0	0	-91.9193	1123.41	41.8264	1.00213	0	-0.360547	0.00100045	-0.0122272	-0.00045524
3.79	0	0	0	0	0	0	0	0	0	-77.3983	1176.86	43.7254	0.987198	0	-0.360621	0.0429255	-0.652692	-0.0242503
3.8	0	0	0	0	0	0	0	0	0	-65.9796	1206.82	47.9964	0.972277	0	-0.361167	0.0501442	-0.917175	-0.036477
3.81	0	0	0	0	0	0	0	0	0	-57.1727	1215.57	54.8375	0.957474	0	-0.362152	0.0332763	-0.707499	-0.0319172
3.82	0	0	0	0	0	0	0	0	0	-47.6555	1209.99	59.8693	0.942902	0	-0.363363	0.00606294	-0.15394	-0.00761682
3.83	0	0	0	0	0	0	0	0	0	-36.2581	1194.8	63.5975	0.928648	0	-0.364512	-0.0162895	0.53678	0.0285721
3.84	0	0	0	0	0	0	0	0	0	-22.5087	1171.67	66.5115	0.914789	0	-0.365399	-0.0227219	1.18276	0.0671412
3.85	0	0	0	0	0	0	0	0	0	-8.11383	1138.93	66.0513	0.901328	0	-0.365958	-0.0118604	1.66483	0.0965506
3.86	0	0	0	0	0	0	0	0	0	4.7232	1096.01	63.9206	0.887956	0	-0.366184	0.00844806	1.96036	0.11433
3.87	0	0	0	0	0	0	0	0	0	19.294	1047.64	60.3737	0.874027	0	-0.366049	0.0397376	2.15769	0.124344
3.88	0	0	0	0	0	0	0	0	0	36.8976	996.053	56.0448	0.858952	0	-0.365549	0.0879751	2.37489	0.133628
3.89	0	0	0	0	0	0	0	0	0	55.0619	938.285	47.9602	0.842582	0	-0.364725	0.152451	2.59784	0.132788
3.9	0	0	0	0	0	0	0	0	0	72.2536	872.293	33.7593	0.825179	0	-0.363595	0.215414	2.60062	0.100649
3.91	0	0	0	0	0	0	0	0	0	86.1421	799.566	20.8322	0.807141	0	-0.362159	0.232107	2.15441	0.0561318
3.92	0	0	0	0	0	0	0	0	0	94.4537	721.577	14.1074	0.788802	0	-0.360537	0.18994	1.45105	0.0283692
3.93	0	0	0	0	0	0	0	0	0	98.0453	638.129	6.6555	0.770386	0	-0.358949	0.179794	1.17019	0.0122047
3.94	0	0	0	0	0	0	0	0	0	97.6727	549.222	-4.23596	0.752104	0	-0.357597	0.295768	1.66313	-0.0128271
3.95	0	0	0	0	0	0	0	0	0	91.619	458.008	-9.65943	0.734269	0	-0.356888	0.36515	1.8254	-0.0384979
3.96	0	0	0	0	0	0	0	0	0	79.6401	369.105	-6.51787	0.717295	0	-0.357956	-0.07795	-0.361271	0.00637955
3.97	0	0	0	0	0	0	0	0	0	64.6809	287.037	-3.4607	0.702753	0	-0.361252	-0.996546	-4.42241	0.0533193
3.98	0	0	0	0	0	0	0	0	0	50.7483	215.868	-4.99042	0.693878	0	-0.361226	-1.01493	-4.31723	0.0998053
3.99	0	0	0	0	0	0	0	0	0	40.5261	159.132	-6.23691	0.695513	0	-0.342136	1.64502	6.45942	-0.253166
4	0	0	0	0	0	0	0	0	0	0	0	0	0	0	0	0	0	0
4.01	0	0	0	0	0	0	0	0	0	0	0	0	0	0	0	0	0	0
4.02	0	0	0	0	0	0	0	0	0	0	0	0	0	0	0	0	0	0
4.03	0	0	0	0	0	0	0	0	0	0	0	0	0	0	0	0	0	0
4.04	0	0	0	0	0	0	0	0	0	0	0	0	0	0	0	0	0	0
4.05	0	0	0	0	0	0	0	0	0	0	0	0	0	0	0	0	0	0
4.06	16.1579	266.761	-8.04108	1.03184	0	-0.2788	-0.369029	-6.09253	0.18365	0	0	0	0	0	0	0	0	0
4.07	33.4854	500.183	-2.12979	1.04609	0	-0.272473	1.72541	25.773	-0.109742	0	0	0	0	0	0	0	0	0
4.08	21.3855	716.886	27.164	1.05005	0	-0.274592	0.505105	16.9321	0.641587	0	0	0	0	0	0	0	0	0
4.09	-19.1177	813.365	48.1284	1.05429	0	-0.274813	-0.0370299	1.57544	0.0932221	0	0	0	0	0	0	0	0	0
4.1	-64.8072	822.949	26.5711	1.05645	0	-0.273434	0.277001	-3.51747	-0.113571	0	0	0	0	0	0	0	0	0
4.11	-102.108	841.127	-9.443	1.0539	0	-0.271522	0.199678	-1.64488	0.0184664	0	0	0	0	0	0	0	0	0
4.12	-123.023	912.917	-28.6431	1.04486	0	-0.26902	-0.0294401	0.218467	-0.00685447	0	0	0	0	0	0	0	0	0
4.13	-126.044	1017.65	-35.0957	1.03068	0	-0.266578	-0.0356718	0.288006	-0.00993244	0	0	0	0	0	0	0	0	0
4.14	-116.517	1116.16	-36.4877	1.01514	0	-0.264993	-0.00434453	0.041618	-0.0013605	0	0	0	0	0	0	0	0	0
4.15	-101.416	1187.57	-34.8239	1.00035	0	-0.264024	-0.0377583	0.442145	-0.0129653	0	0	0	0	0	0	0	0	0
4.16	-86.0467	1228.92	-36.759	0.986462	0	-0.263064	-0.0771589	1.10198	-0.0329621	0	0	0	0	0	0	0	0	0
4.17	-73.5088	1243.76	-42.9044	0.973068	0	-0.261734	-0.0836904	1.41603	-0.048847	0	0	0	0	0	0	0	0	0
4.18	-63.7413	1238.12	-50.2864	0.959747	0	-0.259979	-0.0691098	1.3424	-0.0545218	0	0	0	0	0	0	0	0	0
4.19	-53.5273	1219.93	-57.425	0.946178	0	-0.25799	-0.0526856	1.20074	-0.056522	0	0	0	0	0	0	0	0	0
4.2	-39.7697	1195.09	-61.2733	0.932208	0	-0.256067	-0.0401672	1.20704	-0.0618858	0	0	0	0	0	0	0	0	0
4.21	-22.6694	1164.04	-62.8233	0.917907	0	-0.254449	-0.0260386	1.33704	-0.0721602	0	0	0	0	0	0	0	0	0
4.22	-5.69188	1123.67	-63.2283	0.903408	0	-0.253229	-0.00748743	1.47815	-0.0831742	0	0	0	0	0	0	0	0	0
4.23	9.8406	1075.18	-61.1307	0.888633	0	-0.252375	0.0144593	1.57982	-0.0898227	0	0	0	0	0	0	0	0	0
4.24	25.9133	1023.74	-54.6038	0.873293	0	-0.251858	0.0422833	1.67046	-0.0890982	0	0	0	0	0	0	0	0	0
4.25	43.2197	971.046	-43.8537	0.857182	0	-0.251727	0.0803112	1.80441	-0.0814893	0	0	0	0	0	0	0	0	0
4.26	60.0407	913.581	-32.0601	0.84039	0	-0.252067	0.133128	2.02568	-0.0710867	0	0	0	0	0	0	0	0	0
4.27	73.955	849.062	-20.4477	0.823227	0	-0.252881	0.205057	2.35422	-0.0566958	0	0	0	0	0	0	0	0	0
